<?xml version="1.0" encoding="utf-8"?>
<!-- Generator: Adobe Illustrator 19.1.0, SVG Export Plug-In . SVG Version: 6.00 Build 0)  -->
<svg version="1.1" id="Objects" xmlns="http://www.w3.org/2000/svg" xmlns:xlink="http://www.w3.org/1999/xlink" x="0px" y="0px"
	 viewBox="0 0 143 253.5" style="enable-background:new 0 0 143 253.5;" xml:space="preserve">
<style type="text/css">
	.st0{fill:#448FA3;}
	.st1{fill:#D7263D;}
</style>
<path class="st0" d="M59.2,117.9c-12.8,0-23.1-6.4-33.4-13.2c-9.1-6.4-16.9-9.4-23.3-10.9v87.4h25.4c0.7-5.9,2.2-11.5,4.3-16.4
	c5.7-13.5,15.9-22.5,27.6-22.5c15.9,0,29.1,16.8,31.8,38.9h43.9L105.4,132c6.3-5,11.5-13,15.5-24.2c4.1-11.2,6.1-23.9,6.1-38.2
	c0-9.3-0.9-18-2.8-26.1c-1.9-8.1-4.3-15.1-7.5-21.2c-3.1-6-6.8-10.9-11.1-14.4c-4.3-3.6-8.8-5.3-13.6-5.3H2.5v22.1
	c0.8,0.4,1.5,0.8,2.3,1.1c5,2.6,8.5,1.4,11.5-3c1.7-2.4,3.5-4.7,5.7-7.5c0.8,2.1,1.4,3.6,2.4,6.2c4.1-3.6,7.9-7,12-10.6
	c1.8,7.8-0.1,14.9-3.7,21.7c-2.7,5.2-1.1,11.9,4.5,17.2c5,4.9,12.8,6,17.7,3.9c7.8-3.2,6.8-14.2,5.4-17.9c8.5,0,11.6,14.2,8,23
	c12-0.4,17.1-7.4,28.5-37.8C112,65.1,83.7,82.5,84.6,84.6C93.4,107,73,117.9,59.2,117.9z"/>
<g>
	<path class="st0" d="M20.5,224.7c-0.6-2.4-1.3-4.8-2-7.3c2.3-1.1,3.5-3,3.5-5.6V205c0-2.6-0.9-4.5-2.6-5.6c-1.6-1-3.9-1.5-7-1.5
		H3.8V234h6.6v-15.4h1.8c0.6,2.3,1.2,4.6,1.7,6.9c0.6,2.5,1.1,5.1,1.6,7.8l0.2,0.8h7.1l-0.3-1.2C21.8,230.1,21.2,227.4,20.5,224.7z
		 M10.4,203.1h2c1.9,0,2.4,0.4,2.5,0.5c0.3,0.3,0.5,1,0.5,1.9v6.4c0,0.9-0.3,1.2-0.5,1.3c-0.2,0.2-0.9,0.5-2.4,0.5h-2V203.1z"/>
	<polygon class="st0" points="46.8,213.1 42.4,213.1 42.4,197.9 35.8,197.9 35.8,234 42.4,234 42.4,218.2 46.8,218.2 46.8,234 
		53.4,234 53.4,197.9 46.8,197.9 	"/>
	<path class="st0" d="M80.8,198.5c-0.4,1.1-0.9,2.4-1.4,3.8c-0.5,1.4-1,2.7-1.5,4.1c-0.4,1.1-0.8,2.2-1.1,3.2c-0.3-1-0.7-2-1.1-3.2
		c-0.5-1.3-0.9-2.7-1.4-4c-0.5-1.4-0.9-2.6-1.3-3.8l-0.2-0.7h-7l7.4,20V234h6.7v-16.1l7.7-20H81L80.8,198.5z"/>
	<path class="st0" d="M102.2,227.4c0,1-0.3,1.6-2,1.6c-1.5,0-2.3-0.1-2.6-0.2l-1.3-0.4v5.2l0.7,0.2c0.7,0.2,1.7,0.3,3.2,0.3
		c2.7,0,4.7-0.5,6.2-1.6c1.6-1.1,2.3-2.9,2.3-5.2v-29.5h-6.6V227.4z"/>
	<path class="st0" d="M131.6,197.5c-7.3,0-8.8,3.7-8.8,6.8v23.2c0,3.1,1.5,6.8,8.8,6.8c7.3,0,8.9-3.7,8.9-6.8v-23.2
		C140.5,201.2,138.9,197.5,131.6,197.5z M129.4,204.3c0-0.8,0.2-1.6,2.2-1.6c2.1,0,2.3,0.8,2.3,1.6v23.2c0,0.8-0.2,1.7-2.3,1.7
		c-2,0-2.2-0.9-2.2-1.7V204.3z"/>
</g>
<g>
	<path class="st1" d="M4.7,250.5l0-8.4c0-0.3,0.1-0.4,0.4-0.4c0.2,0,0.5,0.2,0.7,0.6l2.1,4.2l2.2-4.1c0.2-0.4,0.4-0.6,0.7-0.6
		c0.3,0,0.4,0.1,0.4,0.4l0,8.4c0,0.1,0,0.2-0.1,0.2c-0.1,0.1-0.2,0.1-0.3,0.1c-0.1,0-0.2,0-0.3-0.1c-0.1-0.1-0.1-0.1-0.1-0.2l0-7
		l-2.1,3.9c-0.1,0.2-0.2,0.3-0.3,0.3c-0.1,0-0.2-0.1-0.3-0.3l-2-4l0,7c0,0.1,0,0.2-0.1,0.2c-0.1,0.1-0.2,0.1-0.3,0.1
		c-0.1,0-0.2,0-0.3-0.1C4.7,250.6,4.7,250.6,4.7,250.5z"/>
	<path class="st1" d="M20.5,250.5l0-8.5c0-0.1,0-0.2,0.1-0.2c0.1-0.1,0.2-0.1,0.3-0.1l4.4,0c0.2,0,0.3,0.1,0.3,0.4
		c0,0.1,0,0.2-0.1,0.3c-0.1,0.1-0.1,0.1-0.2,0.1l-4,0l0,3.4l2,0c0.1,0,0.2,0,0.2,0.1c0.1,0.1,0.1,0.2,0.1,0.3c0,0.2-0.1,0.3-0.3,0.3
		l-2,0l0,3.5l4,0c0.1,0,0.2,0,0.2,0.1c0.1,0.1,0.1,0.2,0.1,0.3c0,0.2-0.1,0.4-0.3,0.4l-4.4,0c-0.1,0-0.2,0-0.3-0.1
		S20.5,250.6,20.5,250.5z"/>
	<path class="st1" d="M34.3,250.6l0-8.5c0-0.2,0.1-0.3,0.3-0.3l2.2,0c0.8,0,1.5,0.2,1.9,0.6c0.5,0.4,0.7,1,0.7,1.9
		c0,1.4-0.7,2.2-2,2.4l1.9,3.7c0,0,0,0.1,0,0.2c0,0.1-0.1,0.2-0.2,0.3s-0.2,0.1-0.3,0.1c-0.2,0-0.3-0.1-0.4-0.4l-1.9-3.8l-1.6,0
		l0,3.8c0,0.1,0,0.2-0.1,0.2c-0.1,0.1-0.2,0.1-0.3,0.1c-0.1,0-0.2,0-0.3-0.1C34.4,250.8,34.3,250.7,34.3,250.6z M35.2,246.1l1.7,0
		c1.2,0,1.9-0.6,1.9-1.8c0-1.2-0.6-1.7-1.9-1.7l-1.7,0L35.2,246.1z"/>
	<path class="st1" d="M48.4,250.7l0-8.5c0-0.2,0.1-0.3,0.4-0.3c0.2,0,0.4,0.2,0.6,0.6l3.3,6.7l0-6.9c0-0.2,0.1-0.3,0.4-0.3
		c0.3,0,0.4,0.1,0.4,0.3l0,8.5c0,0.1,0,0.2-0.1,0.2c-0.1,0.1-0.2,0.1-0.3,0.1c-0.2,0-0.4-0.2-0.5-0.5l-3.4-6.8l0,6.9
		c0,0.1,0,0.2-0.1,0.2c-0.1,0.1-0.2,0.1-0.3,0.1c-0.1,0-0.2,0-0.3-0.1C48.5,250.8,48.4,250.8,48.4,250.7z"/>
	<path class="st1" d="M72.5,249.9c0-0.1,0-0.2,0.1-0.3c0.1-0.1,0.2-0.2,0.3-0.2c0.1,0,0.1,0.1,0.2,0.2l0.3,0.4
		c0.1,0.1,0.3,0.3,0.6,0.4c0.3,0.1,0.6,0.2,0.9,0.2c0.6,0,1-0.1,1.4-0.4c0.3-0.3,0.5-0.7,0.5-1.3c0-0.4-0.1-0.7-0.2-1
		c-0.2-0.3-0.3-0.5-0.6-0.6c-0.2-0.2-0.5-0.3-0.8-0.4l-0.9-0.4c-0.3-0.1-0.6-0.3-0.8-0.4c-0.2-0.2-0.4-0.4-0.6-0.7
		c-0.2-0.3-0.2-0.6-0.2-1.1c0-0.4,0.1-0.8,0.2-1.1c0.2-0.3,0.4-0.5,0.7-0.7c0.3-0.2,0.6-0.3,0.8-0.3c0.3-0.1,0.6-0.1,0.9-0.1
		c0.5,0,1,0.1,1.4,0.2c0.4,0.1,0.7,0.3,0.7,0.5c0,0.1,0,0.2-0.1,0.3c-0.1,0.1-0.2,0.2-0.3,0.2c-0.1,0-0.1,0-0.3-0.1
		c-0.1-0.1-0.3-0.2-0.6-0.2c-0.3-0.1-0.5-0.1-0.9-0.1c-0.5,0-1,0.1-1.3,0.3c-0.3,0.2-0.5,0.6-0.5,1.1c0,0.4,0.1,0.7,0.3,0.9
		c0.2,0.2,0.5,0.4,0.8,0.5c0.3,0.1,0.6,0.2,1,0.4s0.7,0.3,1,0.5c0.3,0.2,0.6,0.4,0.8,0.8c0.2,0.4,0.3,0.8,0.3,1.4
		c0,0.9-0.2,1.5-0.7,1.9c-0.5,0.4-1.1,0.6-1.9,0.6c-0.7,0-1.3-0.2-1.8-0.5C72.8,250.4,72.5,250.1,72.5,249.9z"/>
	<path class="st1" d="M86,242.4c0-0.1,0-0.2,0.1-0.3c0.1-0.1,0.1-0.1,0.2-0.1l5,0c0.1,0,0.2,0,0.2,0.1c0.1,0.1,0.1,0.2,0.1,0.3
		c0,0.1,0,0.2-0.1,0.3c-0.1,0.1-0.1,0.1-0.2,0.1l-2.1,0l0,8c0,0.1,0,0.2-0.1,0.2c-0.1,0.1-0.2,0.1-0.3,0.1c-0.1,0-0.2,0-0.3-0.1
		c-0.1-0.1-0.1-0.1-0.1-0.2l0-8l-2.1,0c-0.1,0-0.2,0-0.2-0.1C86,242.6,86,242.5,86,242.4z"/>
	<path class="st1" d="M98.8,250.9C98.8,250.9,98.8,250.8,98.8,250.9l2.7-8.5c0.1-0.2,0.2-0.3,0.5-0.3c0.3,0,0.4,0.1,0.5,0.3l2.6,8.5
		c0,0,0,0,0,0c0,0,0,0,0,0c0,0.1-0.1,0.2-0.2,0.2c-0.1,0.1-0.2,0.1-0.3,0.1c-0.2,0-0.3-0.1-0.3-0.2l-0.6-1.9l-3.4,0l-0.6,1.9
		c0,0.1-0.1,0.2-0.3,0.2c-0.1,0-0.2,0-0.3-0.1C98.8,251.1,98.8,251,98.8,250.9z M100.4,248.4l3,0l-1.5-5L100.4,248.4z"/>
	<path class="st1" d="M113.6,248.7l0-3.9c0-0.9,0.3-1.6,0.7-2c0.5-0.4,1.1-0.6,1.9-0.6c0.8,0,1.4,0.2,1.9,0.6
		c0.5,0.4,0.7,0.9,0.7,1.5c0,0.2,0,0.3-0.1,0.4s-0.2,0.1-0.3,0.1c-0.3,0-0.4-0.1-0.4-0.3c0-0.1,0-0.2,0-0.4c0-0.1-0.1-0.2-0.1-0.4
		c-0.1-0.1-0.2-0.3-0.3-0.4c-0.1-0.1-0.3-0.2-0.5-0.3c-0.2-0.1-0.5-0.1-0.7-0.1c-1.2,0-1.8,0.6-1.8,1.9l0,3.9c0,1.3,0.6,1.9,1.8,1.9
		c0.3,0,0.6,0,0.9-0.1c0.2-0.1,0.4-0.2,0.5-0.4c0.1-0.2,0.2-0.3,0.2-0.5c0-0.1,0.1-0.3,0.1-0.5c0-0.2,0.2-0.3,0.4-0.3
		c0.1,0,0.3,0,0.3,0.1c0.1,0.1,0.1,0.2,0.1,0.4c0,0.6-0.2,1.1-0.7,1.5c-0.5,0.4-1.1,0.6-1.9,0.6c-0.8,0-1.4-0.2-1.9-0.7
		S113.6,249.6,113.6,248.7z"/>
	<path class="st1" d="M127.7,251.1l0-8.5c0-0.2,0.1-0.3,0.4-0.3c0.3,0,0.4,0.1,0.4,0.3l0,4.4l3.6-4.6c0.1-0.1,0.1-0.1,0.3-0.1
		c0.1,0,0.2,0,0.3,0.1c0.1,0.1,0.1,0.2,0.1,0.3c0,0.1,0,0.1-0.1,0.2l-2.7,3.3l3,4.6c0,0.1,0,0.1,0,0.2c0,0.1-0.1,0.2-0.2,0.3
		c-0.1,0.1-0.2,0.1-0.3,0.1c-0.1,0-0.2-0.1-0.3-0.2l-2.9-4.3l-1,1.3l0,2.9c0,0.1,0,0.2-0.1,0.2c-0.1,0.1-0.2,0.1-0.3,0.1
		c-0.1,0-0.2,0-0.3-0.1C127.7,251.2,127.7,251.2,127.7,251.1z"/>
</g>
</svg>
